<?xml version="1.0" encoding="utf-8"?>
<!-- Generator: Adobe Illustrator 22.1.0, SVG Export Plug-In . SVG Version: 6.00 Build 0)  -->
<svg version="1.1" id="Слой_1" xmlns="http://www.w3.org/2000/svg" xmlns:xlink="http://www.w3.org/1999/xlink" x="0px" y="0px"
	 viewBox="0 0 1028 1028" style="enable-background:new 0 0 1028 1028;" xml:space="preserve">
<path d="M953,150H75c-41.4,0-75-33.6-75-75v0C0,33.6,33.6,0,75,0h878c41.4,0,75,33.6,75,75v0C1028,116.4,994.4,150,953,150z"/>
<path d="M747.4,589H75c-41.4,0-75-33.6-75-75l0,0c0-41.4,33.6-75,75-75h672.4c41.4,0,75,33.6,75,75v0
	C822.4,555.4,788.8,589,747.4,589z"/>
<path d="M439,1028H75c-41.4,0-75-33.6-75-75v0c0-41.4,33.6-75,75-75h364c41.4,0,75,33.6,75,75v0C514,994.4,480.4,1028,439,1028z"/>
</svg>
