<?xml version="1.0" standalone="no"?>
<!DOCTYPE svg PUBLIC "-//W3C//DTD SVG 20010904//EN"
 "http://www.w3.org/TR/2001/REC-SVG-20010904/DTD/svg10.dtd">
<svg version="1.0" xmlns="http://www.w3.org/2000/svg"
 width="700.000000pt" height="700.000000pt" viewBox="0 0 700.000000 700.000000"
 preserveAspectRatio="xMidYMid meet">
<metadata>
Created by potrace 1.11, written by Peter Selinger 2001-2013
</metadata>
<g transform="translate(0.000000,700.000000) scale(0.100000,-0.100000)"
fill="#000000" stroke="none">
<path d="M3298 6995 c-2 -1 -41 -5 -88 -9 -100 -7 -225 -22 -295 -36 -27 -5
-61 -12 -75 -14 -427 -78 -857 -251 -1250 -504 -80 -52 -319 -227 -330 -243
-3 -3 -25 -23 -50 -44 -84 -69 -229 -214 -365 -365 -93 -103 -287 -374 -355
-495 -153 -272 -219 -414 -301 -652 -33 -98 -81 -259 -95 -326 -20 -90 -53
-272 -59 -322 -4 -33 -9 -69 -11 -80 -18 -98 -25 -570 -10 -715 7 -77 24 -205
31 -250 6 -32 24 -129 29 -155 41 -208 142 -519 227 -703 22 -46 39 -86 39
-88 0 -13 153 -285 213 -379 418 -658 1078 -1177 1814 -1426 103 -35 338 -100
405 -113 13 -2 50 -9 83 -15 33 -6 71 -13 85 -16 14 -3 52 -8 85 -11 33 -3 63
-8 66 -9 15 -10 227 -20 409 -20 188 0 341 8 430 21 144 21 295 48 345 61 33
8 67 16 75 18 100 20 358 107 513 172 122 51 339 160 395 198 20 14 40 25 45
25 4 0 13 5 20 10 7 6 64 45 127 87 246 162 527 410 695 613 21 25 41 47 44
50 17 12 180 233 238 323 252 387 417 793 507 1248 14 70 28 155 32 190 3 35
8 67 10 70 9 17 19 214 18 399 0 188 -6 331 -19 420 -3 19 -7 56 -10 81 -3 25
-7 54 -9 65 -2 10 -11 60 -21 109 -98 525 -337 1054 -671 1480 -43 55 -83 105
-88 112 -214 233 -340 355 -501 484 -419 333 -929 573 -1452 683 -99 21 -244
44 -393 61 -55 7 -526 16 -532 10z m397 -1829 c33 -3 87 -11 120 -16 33 -6 76
-13 95 -16 19 -3 87 -21 150 -40 421 -131 752 -409 939 -789 52 -105 101 -237
115 -307 2 -13 11 -54 19 -93 18 -85 26 -155 32 -274 5 -104 21 -91 -140 -120
-60 -11 -121 -23 -135 -26 -14 -3 -37 -7 -52 -10 -26 -5 -377 -74 -408 -80 -8
-2 -123 -24 -255 -50 -132 -25 -294 -57 -360 -70 -66 -13 -133 -27 -150 -29
-16 -3 -41 -8 -55 -11 -35 -8 -180 -36 -210 -41 -27 -5 -177 -34 -450 -88 -96
-19 -188 -37 -205 -40 -16 -3 -42 -8 -57 -11 l-27 -6 33 -63 c177 -339 497
-507 971 -509 308 -1 571 92 804 286 38 32 72 59 74 60 3 1 64 -68 137 -153
73 -85 147 -171 164 -190 58 -65 96 -114 96 -126 0 -18 -139 -152 -229 -220
-132 -99 -406 -224 -546 -247 -16 -3 -59 -12 -95 -20 -36 -8 -92 -18 -125 -21
-33 -3 -71 -8 -85 -11 -30 -7 -391 -8 -440 -1 -19 2 -62 7 -95 11 -33 3 -67 8
-75 10 -8 3 -28 7 -45 10 -244 42 -523 159 -719 300 -245 175 -430 417 -541
705 -78 200 -109 382 -110 625 0 203 10 296 51 460 130 515 500 930 989 1108
86 31 200 64 240 70 17 3 41 8 55 11 45 10 94 16 185 22 50 4 91 7 92 8 4 4
187 -3 248 -8z"/>
<path d="M3360 4553 c-381 -59 -654 -309 -749 -683 -27 -105 -49 -330 -33
-330 4 0 25 5 47 10 22 5 54 11 70 14 17 3 91 17 165 31 74 15 146 28 160 31
14 3 81 15 150 29 69 13 138 26 154 29 16 3 52 10 80 15 28 6 62 12 76 15 14
2 99 18 190 36 91 18 176 34 190 36 14 3 93 18 175 34 83 16 161 31 175 34 55
9 205 39 208 41 2 2 -9 38 -23 80 -94 272 -332 486 -620 556 -69 17 -125 23
-240 24 -82 1 -161 0 -175 -2z"/>
</g>
</svg>
